<svg xmlns="http://www.w3.org/2000/svg" width="1600" height="80" viewBox="0 0 1600 80" role="img" aria-labelledby="title desc">
  <title id="title">Rainbow stripe preview</title>
  <desc id="desc">A dark banner with diagonal glowing rainbow bands that suggest the plugin's animated TUI post-processing effect.</desc>
  <defs>
    <linearGradient id="bg" x1="0" y1="8" x2="0" y2="72" gradientUnits="userSpaceOnUse">
      <stop offset="0" stop-color="#0c1017"/>
      <stop offset="1" stop-color="#141b27"/>
    </linearGradient>
    <linearGradient id="sheen" x1="0" y1="18" x2="0" y2="62" gradientUnits="userSpaceOnUse">
      <stop offset="0" stop-color="#ffffff" stop-opacity="0.12"/>
      <stop offset="0.46" stop-color="#ffffff" stop-opacity="0"/>
      <stop offset="1" stop-color="#000000" stop-opacity="0.16"/>
    </linearGradient>
    <filter id="glow" x="-10%" y="-70%" width="120%" height="240%">
      <feGaussianBlur stdDeviation="20"/>
    </filter>
    <clipPath id="band">
      <rect x="20" y="18" width="1560" height="44" rx="14"/>
    </clipPath>
  </defs>

  <rect x="4" y="4" width="1592" height="72" rx="18" fill="#080b11"/>
  <rect x="8" y="8" width="1584" height="64" rx="16" fill="url(#bg)"/>

  <g clip-path="url(#band)">
    <rect x="20" y="18" width="1560" height="44" fill="#0f141d"/>

    <g opacity="0.46" filter="url(#glow)">
      <rect x="-140" y="2" width="236" height="76" fill="#d3dbff" transform="skewX(-24)"/>
      <rect x="32" y="2" width="228" height="76" fill="#5b8cff" transform="skewX(-24)"/>
      <rect x="204" y="2" width="220" height="76" fill="#a782ff" transform="skewX(-24)"/>
      <rect x="376" y="2" width="220" height="76" fill="#ff79c6" transform="skewX(-24)"/>
      <rect x="548" y="2" width="220" height="76" fill="#ffb86c" transform="skewX(-24)"/>
      <rect x="720" y="2" width="220" height="76" fill="#f4ee7a" transform="skewX(-24)"/>
      <rect x="892" y="2" width="220" height="76" fill="#50e3c2" transform="skewX(-24)"/>
      <rect x="1064" y="2" width="220" height="76" fill="#6ed8ff" transform="skewX(-24)"/>
      <rect x="1236" y="2" width="228" height="76" fill="#8da0ff" transform="skewX(-24)"/>
      <rect x="1408" y="2" width="236" height="76" fill="#c8d1ff" transform="skewX(-24)"/>
    </g>

    <g>
      <rect x="-144" y="4" width="228" height="72" fill="#c6d2ff" transform="skewX(-24)"/>
      <rect x="24" y="4" width="220" height="72" fill="#5b8cff" transform="skewX(-24)"/>
      <rect x="192" y="4" width="212" height="72" fill="#9f86ff" transform="skewX(-24)"/>
      <rect x="360" y="4" width="212" height="72" fill="#ff79c6" transform="skewX(-24)"/>
      <rect x="528" y="4" width="212" height="72" fill="#ffb86c" transform="skewX(-24)"/>
      <rect x="696" y="4" width="212" height="72" fill="#f4ee7a" transform="skewX(-24)"/>
      <rect x="864" y="4" width="212" height="72" fill="#50e3c2" transform="skewX(-24)"/>
      <rect x="1032" y="4" width="212" height="72" fill="#72d8ff" transform="skewX(-24)"/>
      <rect x="1200" y="4" width="220" height="72" fill="#8097ff" transform="skewX(-24)"/>
      <rect x="1368" y="4" width="228" height="72" fill="#becbff" transform="skewX(-24)"/>
    </g>

    <rect x="20" y="18" width="1560" height="44" fill="url(#sheen)"/>
  </g>

  <rect x="20.5" y="18.5" width="1559" height="43" rx="13.5" fill="none" stroke="#ffffff" stroke-opacity="0.08"/>
  <path d="M28 28h1544" stroke="#ffffff" stroke-opacity="0.07"/>
</svg>
