<svg xmlns="http://www.w3.org/2000/svg" width="1600" height="96" viewBox="0 0 1600 96" role="img" aria-labelledby="title desc">
  <title id="title">Rainbow stripe preview</title>
  <desc id="desc">A dark banner with diagonal glowing rainbow bands that suggest the plugin's animated TUI post-processing effect.</desc>
  <defs>
    <linearGradient id="bg" x1="0" y1="8" x2="0" y2="88" gradientUnits="userSpaceOnUse">
      <stop offset="0" stop-color="#0c1017"/>
      <stop offset="1" stop-color="#141b27"/>
    </linearGradient>
    <linearGradient id="sheen" x1="0" y1="18" x2="0" y2="78" gradientUnits="userSpaceOnUse">
      <stop offset="0" stop-color="#ffffff" stop-opacity="0.12"/>
      <stop offset="0.46" stop-color="#ffffff" stop-opacity="0"/>
      <stop offset="1" stop-color="#000000" stop-opacity="0.16"/>
    </linearGradient>
    <filter id="glow" x="-10%" y="-60%" width="120%" height="220%">
      <feGaussianBlur stdDeviation="20"/>
    </filter>
    <clipPath id="band">
      <rect x="20" y="18" width="1560" height="60" rx="18"/>
    </clipPath>
  </defs>

  <rect x="4" y="4" width="1592" height="88" rx="20" fill="#080b11"/>
  <rect x="8" y="8" width="1584" height="80" rx="18" fill="url(#bg)"/>

  <g clip-path="url(#band)">
    <rect x="20" y="18" width="1560" height="60" fill="#0f141d"/>

    <g opacity="0.46" filter="url(#glow)">
      <rect x="-140" y="6" width="236" height="92" fill="#d3dbff" transform="skewX(-24)"/>
      <rect x="32" y="6" width="228" height="92" fill="#5b8cff" transform="skewX(-24)"/>
      <rect x="204" y="6" width="220" height="92" fill="#a782ff" transform="skewX(-24)"/>
      <rect x="376" y="6" width="220" height="92" fill="#ff79c6" transform="skewX(-24)"/>
      <rect x="548" y="6" width="220" height="92" fill="#ffb86c" transform="skewX(-24)"/>
      <rect x="720" y="6" width="220" height="92" fill="#f4ee7a" transform="skewX(-24)"/>
      <rect x="892" y="6" width="220" height="92" fill="#50e3c2" transform="skewX(-24)"/>
      <rect x="1064" y="6" width="220" height="92" fill="#6ed8ff" transform="skewX(-24)"/>
      <rect x="1236" y="6" width="228" height="92" fill="#8da0ff" transform="skewX(-24)"/>
      <rect x="1408" y="6" width="236" height="92" fill="#c8d1ff" transform="skewX(-24)"/>
    </g>

    <g>
      <rect x="-144" y="8" width="228" height="88" fill="#c6d2ff" transform="skewX(-24)"/>
      <rect x="24" y="8" width="220" height="88" fill="#5b8cff" transform="skewX(-24)"/>
      <rect x="192" y="8" width="212" height="88" fill="#9f86ff" transform="skewX(-24)"/>
      <rect x="360" y="8" width="212" height="88" fill="#ff79c6" transform="skewX(-24)"/>
      <rect x="528" y="8" width="212" height="88" fill="#ffb86c" transform="skewX(-24)"/>
      <rect x="696" y="8" width="212" height="88" fill="#f4ee7a" transform="skewX(-24)"/>
      <rect x="864" y="8" width="212" height="88" fill="#50e3c2" transform="skewX(-24)"/>
      <rect x="1032" y="8" width="212" height="88" fill="#72d8ff" transform="skewX(-24)"/>
      <rect x="1200" y="8" width="220" height="88" fill="#8097ff" transform="skewX(-24)"/>
      <rect x="1368" y="8" width="228" height="88" fill="#becbff" transform="skewX(-24)"/>
    </g>

    <rect x="20" y="18" width="1560" height="60" fill="url(#sheen)"/>
  </g>

  <rect x="20.5" y="18.5" width="1559" height="59" rx="17.5" fill="none" stroke="#ffffff" stroke-opacity="0.08"/>
  <path d="M28 28h1544" stroke="#ffffff" stroke-opacity="0.07"/>
  <path d="M28 68h1544" stroke="#000000" stroke-opacity="0.22"/>
</svg>
